<svg xmlns="http://www.w3.org/2000/svg" width="24" height="24" fill="currentColor" focusable="false" viewBox="0 0 24 24"><path fill-rule="evenodd" clip-rule="evenodd" d="M12 3.558c2.743 0 3.086 0 4.157.043.986.042 1.543.214 1.929.342.471.172.814.429 1.2.772.342.343.6.686.771 1.2.129.343.3.9.343 1.928.043 1.072.043 1.415.043 4.158 0 2.742 0 3.085-.043 4.157-.043.985-.214 1.543-.343 1.928-.171.472-.428.815-.771 1.2-.343.343-.686.6-1.2.772-.343.128-.9.3-1.929.343-1.071.042-1.414.042-4.157.042-2.743 0-3.086 0-4.157-.042-.986-.043-1.543-.215-1.929-.343-.471-.172-.814-.429-1.2-.772-.343-.343-.6-.685-.771-1.2-.129-.343-.3-.9-.343-1.928-.043-1.072-.043-1.415-.043-4.157 0-2.743 0-3.086.043-4.158.043-.985.214-1.542.343-1.928.171-.472.428-.814.771-1.2.343-.343.686-.6 1.2-.772.343-.128.9-.3 1.929-.342 1.071-.043 1.414-.043 4.157-.043Zm0-1.843c-2.786 0-3.129 0-4.243.043-1.114.043-1.843.214-2.486.471-.685.257-1.242.6-1.842 1.2a5.072 5.072 0 0 0-1.2 1.843c-.258.643-.43 1.414-.472 2.486-.043 1.114-.043 1.457-.043 4.243 0 2.785 0 3.128.043 4.242.043 1.115.214 1.843.472 2.486.257.686.6 1.243 1.2 1.843a5.073 5.073 0 0 0 1.842 1.2c.643.257 1.415.429 2.486.471 1.114.043 1.457.043 4.243.043 2.786 0 3.129 0 4.243-.043 1.114-.042 1.843-.214 2.486-.471.685-.257 1.242-.6 1.842-1.2a5.074 5.074 0 0 0 1.2-1.843c.258-.643.429-1.414.472-2.486.043-1.114.043-1.457.043-4.242 0-2.786 0-3.129-.043-4.243-.043-1.115-.214-1.843-.472-2.486-.257-.686-.6-1.243-1.2-1.843a5.072 5.072 0 0 0-1.843-1.2c-.642-.257-1.414-.428-2.485-.471-1.114-.043-1.457-.043-4.243-.043Zm0 5.014a5.268 5.268 0 0 0-5.271 5.27 5.268 5.268 0 0 0 5.27 5.272A5.268 5.268 0 0 0 17.272 12 5.268 5.268 0 0 0 12 6.729Zm0 8.7a3.439 3.439 0 0 1-3.429-3.43A3.439 3.439 0 0 1 12 8.572 3.439 3.439 0 0 1 15.428 12 3.439 3.439 0 0 1 12 15.428Zm6.729-8.915a1.243 1.243 0 1 1-2.486 0 1.243 1.243 0 0 1 2.486 0Z"/></svg>