<svg xmlns="http://www.w3.org/2000/svg" width="16" height="16" fill="currentColor" focusable="false" viewBox="0 0 24 24"><path fill-rule="evenodd" clip-rule="evenodd" d="M17.143 8.57h2.571a.86.86 0 0 1 .857.857v10.286A2.579 2.579 0 0 1 18 22.284H6a2.579 2.579 0 0 1-2.572-2.571V9.427a.86.86 0 0 1 .858-.857h2.571V6.856c0-2.829 2.314-5.143 5.143-5.143 2.829 0 5.143 2.314 5.143 5.143V8.57ZM12 3.427A3.439 3.439 0 0 0 8.57 6.856V8.57h6.857V6.856A3.439 3.439 0 0 0 12 3.427Zm6 17.143a.86.86 0 0 0 .857-.857v-9.429H5.143v9.429A.86.86 0 0 0 6 20.57h12Zm-6.857-1.716v-2.83c-.515-.256-.858-.813-.858-1.456A1.72 1.72 0 0 1 12 12.854a1.72 1.72 0 0 1 1.714 1.714c0 .6-.343 1.157-.857 1.457v2.829h-1.714Z"/></svg>