<svg xmlns="http://www.w3.org/2000/svg" width="24" height="24" fill="currentColor" focusable="false" viewBox="0 0 24 24"><path d="M20.186 7.995v.557c0 5.572-4.243 12-12 12-2.315 0-4.543-.643-6.472-1.886.343.043.686.043.986.043a8.585 8.585 0 0 0 5.229-1.8 4.238 4.238 0 0 1-3.943-2.914 3.992 3.992 0 0 0 1.885-.086c-1.971-.385-3.385-2.143-3.385-4.157V9.71c.6.343 1.243.515 1.928.515C2.571 8.98 1.971 6.538 3.13 4.609a11.937 11.937 0 0 0 8.7 4.415c-.343-1.458.128-3 1.2-4.029 1.714-1.586 4.37-1.5 5.957.171a7.996 7.996 0 0 0 2.7-1.028c-.3.986-.986 1.8-1.843 2.314.857-.086 1.671-.343 2.443-.643-.558.857-1.286 1.586-2.1 2.186Z"/></svg>