<svg xmlns="http://www.w3.org/2000/svg" width="16" height="16" fill="currentColor" focusable="false" viewBox="0 0 24 24"><path fill-rule="evenodd" clip-rule="evenodd" d="M9 4.284a2.571 2.571 0 0 1 2.571-2.571h6.858A2.571 2.571 0 0 1 21 4.284v15.429a2.571 2.571 0 0 1-2.571 2.571h-6.764a2.649 2.649 0 0 1-.094.002h-6A2.571 2.571 0 0 1 3 19.715v-6.853c0-.476.386-.862.861-.862h1.282v-1.285A3.429 3.429 0 0 1 9 7.313V4.284Zm1.714 3.754A3.429 3.429 0 0 1 12 10.714V12h1.281c.476 0 .862.386.862.862v6.853c0 .3-.052.587-.146.855h4.432a.857.857 0 0 0 .857-.857V4.284a.857.857 0 0 0-.857-.857h-1.83a.857.857 0 0 1-.742 1.286h-1.714a.857.857 0 0 1-.743-1.286h-1.829a.857.857 0 0 0-.857.857v3.754Zm.911 12.532a.857.857 0 0 0 .804-.855v-6H4.714v6c0 .473.384.857.857.857h5.143v-.002h.911ZM7.36 9.502a1.714 1.714 0 0 1 2.927 1.213V12H6.857v-1.285c0-.455.18-.891.502-1.213Zm.355 6.355H9.43v2.572H7.714v-2.572Z"/></svg>